<svg width="24" height="25" viewBox="0 0 24 25" fill="none" xmlns="http://www.w3.org/2000/svg">
<path d="M24 12.5C24 19.117 18.617 24.5 12 24.5C5.383 24.5 0 19.117 0 12.5C0 5.883 5.383 0.499996 12 0.499996C18.617 0.499996 24 5.883 24 12.5ZM1 12.5C1 18.565 5.935 23.5 12 23.5C18.065 23.5 23 18.565 23 12.5C23 6.435 18.065 1.5 12 1.5C5.935 1.5 1 6.435 1 12.5ZM13.092 8.77C12.8025 8.48091 12.4101 8.31854 12.001 8.31854C11.5919 8.31854 11.1995 8.48091 10.91 8.77L6.033 13.646L6.74 14.353L11.617 9.477C11.7191 9.37563 11.8571 9.31874 12.001 9.31874C12.1449 9.31874 12.2829 9.37563 12.385 9.477L17.257 14.35L17.964 13.643L13.092 8.77Z" fill="black"/>
</svg>
